<svg width="33" height="33" viewBox="0 0 33 33" fill="none" xmlns="http://www.w3.org/2000/svg">
<path d="M16.3396 21.5881C19.2851 21.5881 21.6729 19.2002 21.6729 16.2547C21.6729 13.3092 19.2851 10.9214 16.3396 10.9214C13.394 10.9214 11.0062 13.3092 11.0062 16.2547C11.0062 19.2002 13.394 21.5881 16.3396 21.5881Z" fill="#212224"/>
<path d="M17.6729 5.68005V2.92139H15.0062V5.68005C12.66 5.97963 10.4795 7.04962 8.80699 8.72215C7.13445 10.3947 6.06447 12.5751 5.76489 14.9214H3.00623V17.5881H5.76489C6.06403 19.9345 7.13387 22.1152 8.80649 23.7878C10.4791 25.4604 12.6598 26.5302 15.0062 26.8294V29.5881H17.6729V26.8294C20.0194 26.5305 22.2002 25.4607 23.8729 23.788C25.5455 22.1154 26.6153 19.9346 26.9142 17.5881H29.6729V14.9214H26.9142C26.6151 12.5749 25.5452 10.3943 23.8726 8.72165C22.2 7.04904 20.0193 5.97919 17.6729 5.68005V5.68005ZM16.3396 24.2547C11.9276 24.2547 8.33956 20.6667 8.33956 16.2547C8.33956 11.8427 11.9276 8.25472 16.3396 8.25472C20.7516 8.25472 24.3396 11.8427 24.3396 16.2547C24.3396 20.6667 20.7516 24.2547 16.3396 24.2547Z" fill="#212224"/>
</svg>
